<?xml version="1.0" standalone="no"?>
<!DOCTYPE svg PUBLIC "-//W3C//DTD SVG 20010904//EN"
 "http://www.w3.org/TR/2001/REC-SVG-20010904/DTD/svg10.dtd">
<svg version="1.0" xmlns="http://www.w3.org/2000/svg"
 width="1000.000000pt" height="1000.000000pt" viewBox="0 0 1000.000000 1000.000000"
 preserveAspectRatio="xMidYMid meet">
<metadata>
Created by potrace 1.11, written by Peter Selinger 2001-2013
</metadata>
<g transform="translate(0.000000,1000.000000) scale(0.100000,-0.100000)"
fill="#000000" stroke="none">
<path d="M3715 6933 c-225 -41 -397 -137 -513 -287 -99 -127 -151 -271 -156
-428 -2 -76 19 -216 38 -246 4 -6 9 -22 11 -34 3 -12 26 -57 52 -100 201 -333
620 -463 985 -306 482 206 604 812 238 1178 -99 99 -232 174 -367 206 -63 15
-241 25 -288 17z"/>
<path d="M6257 6204 c-1 -1 -40 -4 -87 -8 -47 -3 -96 -8 -110 -11 -14 -3 -38
-8 -55 -11 -413 -74 -789 -364 -970 -747 -109 -230 -142 -491 -97 -752 16 -91
51 -201 97 -307 6 -16 -1 -18 -76 -19 -160 -1 -540 -16 -619 -24 -25 -2 -90
-7 -145 -11 -55 -4 -113 -8 -130 -9 -60 -5 -178 -17 -208 -21 -18 -2 -59 -6
-92 -9 -33 -3 -67 -8 -75 -10 -8 -2 -40 -7 -70 -10 -30 -3 -77 -10 -105 -15
-27 -5 -70 -11 -95 -15 -25 -3 -70 -9 -100 -15 -30 -5 -71 -12 -90 -15 -19 -3
-71 -12 -115 -20 -44 -8 -93 -17 -110 -19 -16 -3 -55 -10 -85 -16 -30 -6 -64
-13 -75 -15 -87 -13 -472 -110 -740 -185 -99 -27 -188 -52 -198 -54 -138 -35
-757 -262 -942 -346 -11 -5 -42 -19 -70 -31 -229 -99 -477 -223 -655 -326 -72
-42 -168 -100 -178 -108 -1 -1 0 -10 4 -19 7 -17 34 -22 34 -6 0 6 6 10 12 10
11 0 69 24 233 95 134 58 607 222 870 301 189 57 208 63 444 125 218 57 205
54 286 73 201 46 294 67 320 72 17 3 50 10 75 15 37 9 175 36 280 55 24 4 46
9 100 19 14 3 41 8 60 11 19 3 46 7 60 9 14 3 42 7 64 10 21 4 46 8 55 10 9 1
52 8 96 15 44 6 91 13 105 15 36 7 192 27 305 40 28 4 61 8 75 10 14 2 57 7
95 10 39 3 86 8 105 10 52 7 137 15 210 20 36 2 97 7 135 10 285 22 494 29
970 29 405 1 694 -6 825 -18 19 -2 85 -7 145 -10 61 -4 128 -9 150 -11 22 -2
72 -7 110 -10 39 -3 84 -8 100 -10 17 -2 55 -6 85 -9 127 -13 174 -18 190 -21
8 -2 43 -6 75 -10 33 -4 67 -9 75 -10 31 -5 96 -15 140 -20 25 -3 70 -10 100
-15 30 -5 75 -12 100 -15 25 -3 52 -8 60 -10 8 -3 89 -18 180 -35 187 -34 207
-38 235 -44 11 -2 56 -12 100 -21 44 -9 103 -22 130 -30 28 -7 64 -16 80 -18
70 -11 537 -137 755 -203 63 -20 122 -37 130 -39 24 -6 445 -150 565 -193 61
-22 214 -81 340 -131 170 -68 231 -88 237 -78 10 15 -1 23 -161 115 -171 99
-519 273 -726 364 -139 61 -425 179 -445 184 -3 0 -12 4 -20 7 -23 10 -194 71
-310 110 -197 67 -445 140 -687 201 l-243 62 41 54 c169 225 252 487 244 775
-2 77 -7 156 -10 175 -86 472 -408 848 -872 1019 -75 27 -194 58 -258 66 -80
11 -252 24 -258 19z"/>
</g>
</svg>
