<?xml version="1.0" standalone="no"?>
<!DOCTYPE svg PUBLIC "-//W3C//DTD SVG 20010904//EN"
 "http://www.w3.org/TR/2001/REC-SVG-20010904/DTD/svg10.dtd">
<svg version="1.0" xmlns="http://www.w3.org/2000/svg"
 width="1000.000000pt" height="1000.000000pt" viewBox="0 0 1000.000000 1000.000000"
 preserveAspectRatio="xMidYMid meet">
<metadata>
Created by potrace 1.14, written by Peter Selinger 2001-2017
</metadata>
<g transform="translate(0.000000,1000.000000) scale(0.100000,-0.100000)"
fill="#000000" stroke="none">
<path d="M4837 6994 c-1 -1 -54 -5 -117 -9 -63 -3 -117 -8 -120 -10 -3 -1 -37
-6 -76 -9 -39 -4 -82 -9 -95 -11 -13 -3 -41 -7 -64 -10 -216 -30 -541 -120
-800 -222 -656 -258 -1219 -683 -1671 -1263 -51 -66 -224 -316 -224 -324 0 -3
-24 -44 -53 -93 -29 -48 -81 -145 -116 -214 l-63 -126 -652 -1 c-358 0 -661
-1 -673 -1 l-21 -1 0 -844 c0 -637 2 -845 11 -848 7 -2 900 -4 1986 -4 l1973
1 3 755 c1 415 5 766 9 780 4 14 9 34 10 45 13 75 28 122 68 215 108 245 357
418 658 458 69 9 308 9 375 0 338 -44 594 -244 694 -539 56 -167 56 -163 56
-964 0 -407 3 -742 7 -745 3 -3 896 -5 1985 -5 l1978 0 2 848 1 847 -26 1
c-15 0 -318 1 -675 1 l-647 1 -55 112 c-138 283 -356 611 -562 845 -105 119
-345 354 -441 432 -437 356 -890 596 -1407 748 -196 57 -459 111 -619 126 -28
3 -62 7 -75 9 -67 12 -553 28 -564 19z"/>
</g>
</svg>
