<?xml version="1.0" standalone="no"?>
<!DOCTYPE svg PUBLIC "-//W3C//DTD SVG 1.1//EN" "http://www.w3.org/Graphics/SVG/1.1/DTD/svg11.dtd" >
<svg xmlns="http://www.w3.org/2000/svg" xmlns:xlink="http://www.w3.org/1999/xlink" version="1.1">
<metadata>
Created by FontForge 20170731 at Mon May 17 00:06:21 2021
 By Aleksey,,,
CC-0 public domain
</metadata>
<defs>
<font id="AurebeshVaporatorBETA-Regular" horiz-adv-x="1126" >
  <font-face 
    font-family="AurebeshVaporatorBETA"
    font-weight="400"
    font-stretch="normal"
    units-per-em="2048"
    panose-1="2 0 5 3 0 0 0 0 0 0"
    ascent="1707"
    descent="-341"
    x-height="1706"
    cap-height="1706"
    bbox="102 0 1220 1706"
    underline-thickness="85"
    underline-position="-255"
    unicode-range="U+0020-007A"
  />
<missing-glyph horiz-adv-x="1024" 
d="M102 0v1137h820v-1137h-820zM205 102h614v932h-614v-932z" />
    <glyph glyph-name=".notdef" horiz-adv-x="1024" 
d="M102 0v1137h820v-1137h-820zM205 102h614v932h-614v-932z" />
    <glyph glyph-name="uni0000" horiz-adv-x="512" 
 />
    <glyph glyph-name="uni0000" horiz-adv-x="512" 
 />
    <glyph glyph-name="nonmarkingreturn" horiz-adv-x="682" 
 />
    <glyph glyph-name="space" unicode=" " horiz-adv-x="512" 
 />
    <glyph glyph-name="A" unicode="A" horiz-adv-x="865" 
d="M171 1706h131v-787l262 787h131l-262 -787h-131h-131v787zM302 788v-787h-131v787h131zM302 788h131l262 -787h-131z" />
    <glyph glyph-name="B" unicode="B" horiz-adv-x="1257" 
d="M302 788l218 -656h219l218 656h131l-262 -787h-393l-262 787h131zM826 919v-131h-393v131h393zM171 919l262 787h393l262 -787h-131l-218 655h-219l-218 -655h-131z" />
    <glyph glyph-name="C" unicode="C" horiz-adv-x="996" 
d="M695 1050h131v-1049h-131v1049zM433 1050h131v-393h-131v393zM302 1706v-1049h-131v1049h131z" />
    <glyph glyph-name="D" unicode="D" 
d="M171 1l353 918h-222v131h272l202 524h-605v132h786l-655 -1705h-131z" />
    <glyph glyph-name="E" unicode="E" horiz-adv-x="1389" 
d="M1220 1706v-132h-132v-1573h-131v1705l-262 -1705h-131l262 1705h131h263zM564 1h-131l-262 1705h131z" />
    <glyph glyph-name="F" unicode="F" 
d="M302 919l131 131h131v656h131v-656h262l-131 -131h-131v-787h262v-131h-786v787zM302 919v-787h262v787h-262z" />
    <glyph glyph-name="G" unicode="G" 
d="M302 1706v-1574h282l222 1442h-242v-393h-131v525h524l-262 -1705h-524v1705h131z" />
    <glyph glyph-name="H" unicode="H" horiz-adv-x="996" 
d="M302 919h393v-131h-393v131zM826 132v-131h-655v131h655zM826 1706v-132h-655v132h655z" />
    <glyph glyph-name="I" unicode="I" horiz-adv-x="865" 
d="M695 1h-131v1705l-262 -787h-131l262 787h131h131v-1705z" />
    <glyph glyph-name="J" unicode="J" 
d="M171 1v131h413l220 1429l-633 -380v131l655 394h131l-262 -1705h-524z" />
    <glyph glyph-name="K" unicode="K" horiz-adv-x="865" 
d="M171 132h393v1442h-393v132h524v-1705h-524v131z" />
    <glyph glyph-name="L" unicode="L" horiz-adv-x="865" 
d="M695 1706v-1705h-131v1705h131zM564 1h-131l-262 787h131z" />
    <glyph glyph-name="M" unicode="M" horiz-adv-x="996" 
d="M433 1706h393l-131 -132h-151l-222 -1442h504v-131h-655z" />
    <glyph glyph-name="N" unicode="N" horiz-adv-x="1389" 
d="M1220 1h-132l-262 1705l-262 -1705h-131l262 1705h131h131zM302 1706h131q-5 -6 -14 -19t-31.5 -71.5t-40 -138t-31.5 -228t-14 -330.5t13.5 -343.5t33 -262t38.5 -175t33 -106.5l13 -31h-131q-5 16 -14 45t-31.5 125t-40 196.5t-31.5 252t-14 299.5t13.5 284t32.5 223.5
t38.5 154t32.5 95.5z" />
    <glyph glyph-name="O" unicode="O" horiz-adv-x="1257" 
d="M322 132h615l-222 1442h-171zM171 1l262 1705h393l262 -1705h-917z" />
    <glyph glyph-name="P" unicode="P" horiz-adv-x="996" 
d="M564 1706v-525h-131v525q-5 -6 -14 -19t-31.5 -71.5t-40 -138t-31.5 -228t-14 -330.5q0 -475 86 -787h307v1574h131v-1705h-524q-5 16 -14 45t-31.5 125t-40 196.5t-31.5 252t-14 299.5t13.5 284t32.5 223.5t38.5 154t32.5 95.5l14 30h131h131z" />
    <glyph glyph-name="Q" unicode="Q" horiz-adv-x="996" 
d="M171 1v1705h655v-394l-131 -131v393h-393v-1442h393l-131 -131h-393z" />
    <glyph glyph-name="R" unicode="R" 
d="M171 1l605 1573h-605v132h786l-655 -1705h-131z" />
    <glyph glyph-name="S" unicode="S" horiz-adv-x="996" 
d="M826 1706v-1705h-131v1705h131zM302 526l131 -394h-131l-131 394h131zM695 1h-131l-393 1705h131z" />
    <glyph glyph-name="T" unicode="T" horiz-adv-x="1257" 
d="M1088 788l-262 -787h-131l262 787h131zM695 1h-131v1705h131v-1705zM564 1h-131l-262 787h131z" />
    <glyph glyph-name="U" unicode="U" 
d="M302 1706v-1574h524v1574l-262 -525h-131l262 525h131h131v-1705h-786v1705h131z" />
    <glyph glyph-name="V" unicode="V" horiz-adv-x="996" 
d="M302 1706l196 -754l197 754h131l-262 -918v-787h-131v787l-262 918h131z" />
    <glyph glyph-name="W" unicode="W" horiz-adv-x="865" 
d="M695 1h-524v1705h524v-1705zM302 132h262v1442h-262v-1442z" />
    <glyph glyph-name="X" unicode="X" 
d="M564 1706h131l262 -1705h-786l262 1705h131zM564 1706l-242 -1574h484z" />
    <glyph glyph-name="Y" unicode="Y" 
d="M564 1l262 1705h131l-262 -1705h-131zM564 1h-131l-262 1705h393l70 -526h-131l-53 394h-128z" />
    <glyph glyph-name="Z" unicode="Z" horiz-adv-x="996" 
d="M171 657l131 131v-656h393l-131 -131h-393v656zM695 132zM695 132v787h-262l131 131h131v656h131v-1443z" />
    <glyph glyph-name="a" unicode="a" horiz-adv-x="865" 
d="M171 1706h131v-787l262 787h131l-262 -787h-131h-131v787zM302 788v-787h-131v787h131zM302 788h131l262 -787h-131z" />
    <glyph glyph-name="b" unicode="b" horiz-adv-x="1257" 
d="M302 788l218 -656h219l218 656h131l-262 -787h-393l-262 787h131zM826 919v-131h-393v131h393zM171 919l262 787h393l262 -787h-131l-218 655h-219l-218 -655h-131z" />
    <glyph glyph-name="c" unicode="c" horiz-adv-x="996" 
d="M695 1050h131v-1049h-131v1049zM433 1050h131v-393h-131v393zM302 1706v-1049h-131v1049h131z" />
    <glyph glyph-name="d" unicode="d" 
d="M171 1l353 918h-222v131h272l202 524h-605v132h786l-655 -1705h-131z" />
    <glyph glyph-name="e" unicode="e" horiz-adv-x="1389" 
d="M1220 1706v-132h-132v-1573h-131v1705l-262 -1705h-131l262 1705h131h263zM564 1h-131l-262 1705h131z" />
    <glyph glyph-name="f" unicode="f" 
d="M302 919l131 131h131v656h131v-656h262l-131 -131h-131v-787h262v-131h-786v787zM302 919v-787h262v787h-262z" />
    <glyph glyph-name="g" unicode="g" 
d="M302 1706v-1574h282l222 1442h-242v-393h-131v525h524l-262 -1705h-524v1705h131z" />
    <glyph glyph-name="h" unicode="h" horiz-adv-x="996" 
d="M302 919h393v-131h-393v131zM826 132v-131h-655v131h655zM826 1706v-132h-655v132h655z" />
    <glyph glyph-name="i" unicode="i" horiz-adv-x="865" 
d="M695 1h-131v1705l-262 -787h-131l262 787h131h131v-1705z" />
    <glyph glyph-name="j" unicode="j" 
d="M171 1v131h413l220 1429l-633 -380v131l655 394h131l-262 -1705h-524z" />
    <glyph glyph-name="k" unicode="k" horiz-adv-x="865" 
d="M171 132h393v1442h-393v132h524v-1705h-524v131z" />
    <glyph glyph-name="l" unicode="l" horiz-adv-x="865" 
d="M695 1706v-1705h-131v1705h131zM564 1h-131l-262 787h131z" />
    <glyph glyph-name="m" unicode="m" horiz-adv-x="996" 
d="M433 1706h393l-131 -132h-151l-222 -1442h504v-131h-655z" />
    <glyph glyph-name="n" unicode="n" horiz-adv-x="1389" 
d="M1220 1h-132l-262 1705l-262 -1705h-131l262 1705h131h131zM302 1706h131q-5 -6 -14 -19t-31.5 -71.5t-40 -138t-31.5 -228t-14 -330.5t13.5 -343.5t33 -262t38.5 -175t33 -106.5l13 -31h-131q-5 16 -14 45t-31.5 125t-40 196.5t-31.5 252t-14 299.5t13.5 284t32.5 223.5
t38.5 154t32.5 95.5z" />
    <glyph glyph-name="o" unicode="o" horiz-adv-x="1257" 
d="M322 132h615l-222 1442h-171zM171 1l262 1705h393l262 -1705h-917z" />
    <glyph glyph-name="p" unicode="p" horiz-adv-x="996" 
d="M564 1706v-525h-131v525q-5 -6 -14 -19t-31.5 -71.5t-40 -138t-31.5 -228t-14 -330.5q0 -475 86 -787h307v1574h131v-1705h-524q-5 16 -14 45t-31.5 125t-40 196.5t-31.5 252t-14 299.5t13.5 284t32.5 223.5t38.5 154t32.5 95.5l14 30h131h131z" />
    <glyph glyph-name="q" unicode="q" horiz-adv-x="996" 
d="M171 1v1705h655v-394l-131 -131v393h-393v-1442h393l-131 -131h-393z" />
    <glyph glyph-name="r" unicode="r" 
d="M171 1l605 1573h-605v132h786l-655 -1705h-131z" />
    <glyph glyph-name="s" unicode="s" horiz-adv-x="996" 
d="M826 1706v-1705h-131v1705h131zM302 526l131 -394h-131l-131 394h131zM695 1h-131l-393 1705h131z" />
    <glyph glyph-name="t" unicode="t" horiz-adv-x="1257" 
d="M1088 788l-262 -787h-131l262 787h131zM695 1h-131v1705h131v-1705zM564 1h-131l-262 787h131z" />
    <glyph glyph-name="u" unicode="u" 
d="M302 1706v-1574h524v1574l-262 -525h-131l262 525h131h131v-1705h-786v1705h131z" />
    <glyph glyph-name="v" unicode="v" horiz-adv-x="996" 
d="M302 1706l196 -754l197 754h131l-262 -918v-787h-131v787l-262 918h131z" />
    <glyph glyph-name="w" unicode="w" horiz-adv-x="865" 
d="M695 1h-524v1705h524v-1705zM302 132h262v1442h-262v-1442z" />
    <glyph glyph-name="x" unicode="x" 
d="M564 1706h131l262 -1705h-786l262 1705h131zM564 1706l-242 -1574h484z" />
    <glyph glyph-name="y" unicode="y" 
d="M564 1l262 1705h131l-262 -1705h-131zM564 1h-131l-262 1705h393l70 -526h-131l-53 394h-128z" />
    <glyph glyph-name="z" unicode="z" horiz-adv-x="996" 
d="M171 657l131 131v-656h393l-131 -131h-393v656zM695 132zM695 132v787h-262l131 131h131v656h131v-1443z" />
    </font>
</defs>
</svg>
