<svg id="Layer_3" data-name="Layer 3" xmlns="http://www.w3.org/2000/svg" viewBox="0 0 216 122.98"><defs><style>.cls-1{fill:none;stroke:#f37257;stroke-miterlimit:10;stroke-width:7px;}.cls-2{fill:#f37257;}</style></defs><title>home-icon</title><path class="cls-1" d="M209.64,116c-.8-21.49-5.47-24.27-5.47-24.27H172.51c-35.62-62-99.14-53.81-129,0H11.83S7.16,94.52,6.36,116L3.5,118.29v34.45c14.86-1.34,43.09,1.6,57,5.94V125.74H74.09c9.6-41.12,61-36.1,67.82,0H155.5v32.94c14.25-4.47,42.47-7.22,57-5.94V118.29Z" transform="translate(0 -44.76)"/><path class="cls-2" d="M107.5,109.46s-15-.55-19,16.32v42h38v-42C122.46,108.91,107.5,109.46,107.5,109.46Z" transform="translate(0 -44.76)"/></svg>