<svg id="Layer_3" data-name="Layer 3" xmlns="http://www.w3.org/2000/svg" viewBox="0 0 476.94 220.76"><defs><style>.cls-1{fill:none;stroke:#f1ae1d;stroke-miterlimit:10;stroke-width:9px;}.cls-2{fill:#f1ae1d;}</style></defs><title>sandcrawler-icon</title><polyline class="cls-1" points="211.93 19.35 208.04 12.54 6.63 4.76 13.31 22.27"/><path class="cls-1" d="M35.58,77.15c-7-11.31-9.7-20.85-17.51-42.43"/><path class="cls-1" d="M125.34,183.79h-1c-58.95-69.3-78.48-89.9-88.78-106.64"/><line class="cls-1" x1="198.31" y1="183.79" x2="125.34" y2="183.79"/><path class="cls-1" d="M355.93,183.79h52.54"/><path class="cls-1" d="M408.47,183.79h26.27l17.51-34.06L471.71,19.35H418.2l-8.76-6.81H354l-7.78,6.81"/><path class="cls-1" d="M198.31,183.79h60.32l4.87,25.29h42.81l3.89-25.29h45.73"/><line class="cls-1" x1="211.93" y1="19.35" x2="346.2" y2="19.35"/><path class="cls-2" d="M226.36,202.52l-6.72,9.24H167l-6.45-9.24h65.8m17.68-9H143.32l19,27.24h61.91L244,193.52Z"/><path class="cls-2" d="M407.34,202.52l-6.72,9.24H348l-6.44-9.24h65.8m17.68-9H324.3l19,27.24H405.2L425,193.52Z"/><path class="cls-1" d="M123.39,9.27c0,.37,2.38,174.19,2.38,174.52"/><line class="cls-1" x1="211.93" y1="19.35" x2="197.98" y2="183.79"/><path class="cls-1" d="M355.93,183.79c.08-4.58-9.59-160-9.73-164.44"/><line class="cls-1" x1="13.32" y1="22.27" x2="18.07" y2="34.72"/><path class="cls-2" d="M18.07,34.72l33.32-7.58V22.27H13.44"/><line class="cls-1" x1="417.71" y1="19.84" x2="408.28" y2="183.79"/><line class="cls-1" x1="35.58" y1="77.15" x2="35.58" y2="77.15"/><line class="cls-1" x1="123.95" y1="50.85" x2="35.58" y2="77.15"/></svg>