<?xml version="1.0" encoding="utf-8"?>
<!-- Generator: Adobe Illustrator 22.1.0, SVG Export Plug-In . SVG Version: 6.00 Build 0)  -->
<svg version="1.1" xmlns="http://www.w3.org/2000/svg" xmlns:xlink="http://www.w3.org/1999/xlink" x="0px" y="0px"
	 viewBox="0 0 607.5 218.4" style="enable-background:new 0 0 607.5 218.4;" xml:space="preserve">
<style type="text/css">
	.st0{display:none;}
	.st1{display:inline;fill:#FFFFFF;}
	.st2{fill:#FFFFFF;}
	.st3{fill:#F77529;}
	.st4{fill:#EDCCCA;}
	.st5{fill:none;stroke:#FFFFFF;stroke-width:5.3242;stroke-miterlimit:10;}
</style>
<g id="Background">
</g>
<g id="Text">
	<g class="st0">
		<path class="st1" d="M165.5,110.5l16,36.7l15-34.7h7l-22,51.2l-16-36.8l-16,36.8l-22.1-51.2h7l15.1,35.1L165.5,110.5z"/>
		<path class="st1" d="M254.8,110.5l23.5,51.6h-7.1l-5.8-12.7h-21.1l-5.7,12.7h-7.1L254.8,110.5z M254.8,126l-8,17.7h16L254.8,126z"
			/>
		<path class="st1" d="M346.1,118l-5.5,4.4c-1.5-1.5-2.8-2.6-4-3.4c-1.2-0.7-2.9-1.1-5.1-1.1c-2.4,0-4.4,0.6-5.9,1.7
			c-1.5,1.1-2.3,2.5-2.3,4.3c0,1.5,0.7,2.8,2,4c1.3,1.2,3.6,2.4,6.8,3.8c3.2,1.4,5.7,2.6,7.5,3.8c1.8,1.2,3.2,2.5,4.4,3.9
			c1.1,1.4,2,2.9,2.6,4.5c0.6,1.6,0.8,3.3,0.8,5c0,4.1-1.5,7.7-4.5,10.6c-3,2.9-6.6,4.4-10.9,4.4c-4.2,0-7.8-1.1-11-3.4
			c-3.2-2.3-5.6-5.7-7.4-10.2l6.8-1.9c2.5,5.6,6.3,8.4,11.4,8.4c2.5,0,4.5-0.7,6.2-2.2c1.6-1.5,2.5-3.3,2.5-5.6
			c0-1.3-0.4-2.7-1.3-4.1c-0.9-1.4-1.9-2.5-3.2-3.4c-1.3-0.9-3.3-1.9-6.1-3c-2.8-1.1-4.9-2.2-6.4-3.1c-1.5-0.9-2.8-2.1-3.9-3.4
			c-1.1-1.3-1.9-2.6-2.4-3.9c-0.5-1.3-0.8-2.7-0.8-4.2c0-3.6,1.4-6.6,4.3-9.1c2.9-2.5,6.3-3.8,10.4-3.8c2.7,0,5.5,0.6,8.2,1.8
			S344.3,115.6,346.1,118z"/>
		<path class="st1" d="M383.8,112.4h30.4v6.8h-11.9v42.9h-6.7v-42.9h-11.8V112.4z"/>
		<path class="st1" d="M452.5,112.4h27.6v6.8h-20.8v12.4h20.8v6.7h-20.8v17.1h20.8v6.7h-27.6V112.4z"/>
	</g>
	<g>
		<path class="st2" d="M102.4,179.4h5.1v27.4c0,7.4-3.1,11.2-9.3,11.2c-2.1,0-4.3-0.6-6.4-1.7l2.5-4.2c1.6,0.6,3,0.8,4,0.8
			c2.7,0,4-1.8,4-5.4V179.4z"/>
		<path class="st2" d="M138.6,197.7c0-5.4,2-10,6.1-13.8c4.1-3.8,8.9-5.8,14.6-5.8c5.6,0,10.4,1.9,14.4,5.8c4,3.9,6,8.5,6,13.8
			c0,5.6-2,10.4-6,14.3c-4,3.9-8.9,5.8-14.6,5.8c-5.7,0-10.6-2-14.6-5.9C140.6,208.1,138.6,203.3,138.6,197.7z M174.4,198
			c0-4.1-1.5-7.6-4.5-10.4c-3-2.8-6.6-4.2-11-4.2c-4.1,0-7.7,1.4-10.6,4.3c-2.9,2.9-4.4,6.3-4.4,10.3c0,4.1,1.5,7.5,4.5,10.3
			s6.7,4.2,11.1,4.2c4,0,7.5-1.4,10.4-4.3C172.9,205.4,174.4,201.9,174.4,198z"/>
		<path class="st2" d="M209.7,179.4h5.1v22.9c0,3.4,0.8,6,2.4,7.9c1.6,1.9,3.9,2.8,6.9,2.8c3,0,5.3-0.9,6.9-2.6
			c1.7-1.7,2.5-4.1,2.5-7.2v-23.8h5.1v23.5c0,4.6-1.3,8.2-3.9,11c-2.6,2.7-6.1,4.1-10.4,4.1c-4.4,0-8-1.4-10.6-4.2
			c-2.7-2.8-4-6.9-4-12.3V179.4z"/>
		<path class="st2" d="M270.3,179.3h8.1c4,0,7.3,1,9.8,3c2.5,2,3.8,4.6,3.8,7.7c0,2.5-0.8,4.7-2.5,6.6c-1.6,1.9-4.2,3.3-7.7,4
			l10.8,16h-5.8l-10.4-15.4h-1.1v15.4h-5.1V179.3z M275.4,183.8v13c7.5,0.2,11.3-2,11.3-6.5c0-1.6-0.4-2.9-1.3-3.9
			c-0.9-1-2.1-1.7-3.5-2.1C280.4,184,278.2,183.8,275.4,183.8z"/>
		<path class="st2" d="M322.6,177.8l27.6,28.4v-26.9h5.1v39.1l-27.6-28.2v26.5h-5.1V177.8z"/>
		<path class="st2" d="M385.9,179.3h20.7v5.1h-15.6v9.3h15.6v5h-15.6v12.8h15.6v5h-20.7V179.3z"/>
		<path class="st2" d="M433.8,179.3h5.6l9.2,15l9.1-15h5.7L451,199.5v17.1H446v-17.1L433.8,179.3z"/>
		<path class="st2" d="M514.7,183.5l-4.1,3.3c-1.1-1.1-2.1-2-3-2.5s-2.2-0.8-3.8-0.8c-1.8,0-3.3,0.4-4.5,1.2
			c-1.1,0.8-1.7,1.9-1.7,3.2c0,1.1,0.5,2.1,1.5,3c1,0.9,2.7,1.8,5.1,2.8s4.3,2,5.6,2.9c1.3,0.9,2.4,1.9,3.3,2.9
			c0.9,1.1,1.5,2.2,1.9,3.4s0.6,2.4,0.6,3.8c0,3.1-1.1,5.7-3.4,7.9s-5,3.3-8.2,3.3c-3.1,0-5.9-0.9-8.3-2.6s-4.2-4.3-5.5-7.7l5.1-1.4
			c1.9,4.2,4.7,6.3,8.5,6.3c1.9,0,3.4-0.6,4.6-1.7c1.2-1.1,1.8-2.5,1.8-4.2c0-1-0.3-2-1-3.1s-1.4-1.9-2.4-2.5
			c-1-0.7-2.5-1.4-4.6-2.3c-2.1-0.9-3.7-1.6-4.8-2.4c-1.1-0.7-2.1-1.6-2.9-2.5c-0.8-1-1.4-2-1.8-2.9c-0.4-1-0.6-2-0.6-3.1
			c0-2.7,1.1-5,3.2-6.8c2.1-1.9,4.8-2.8,7.8-2.8c2,0,4.1,0.4,6.2,1.3S513.3,181.7,514.7,183.5z"/>
	</g>
	<g>
		<path class="st2" d="M130.1,110.5l16,36.7l15-34.7h7l-22,51.2l-16-36.8l-16,36.8L92,112.5h7l15.1,35.1L130.1,110.5z"/>
		<path class="st2" d="M219.5,110.5l23.5,51.6h-7.1l-5.8-12.7H209l-5.7,12.7h-7.1L219.5,110.5z M219.5,126l-8,17.7h16L219.5,126z"/>
		<path class="st2" d="M310.7,118l-5.5,4.4c-1.5-1.5-2.8-2.6-4-3.4c-1.2-0.7-2.9-1.1-5.1-1.1c-2.4,0-4.4,0.6-5.9,1.7
			c-1.5,1.1-2.3,2.5-2.3,4.3c0,1.5,0.7,2.8,2,4c1.3,1.2,3.6,2.4,6.8,3.8s5.7,2.6,7.5,3.8c1.8,1.2,3.2,2.5,4.4,3.9
			c1.1,1.4,2,2.9,2.6,4.5c0.6,1.6,0.8,3.3,0.8,5c0,4.1-1.5,7.7-4.5,10.6c-3,2.9-6.6,4.4-10.9,4.4c-4.2,0-7.8-1.1-11-3.4
			c-3.2-2.3-5.6-5.7-7.4-10.2l6.8-1.9c2.5,5.6,6.3,8.4,11.4,8.4c2.5,0,4.5-0.7,6.2-2.2c1.6-1.5,2.5-3.3,2.5-5.6
			c0-1.3-0.4-2.7-1.3-4.1c-0.9-1.4-1.9-2.5-3.2-3.4c-1.3-0.9-3.3-1.9-6.1-3c-2.8-1.1-4.9-2.2-6.4-3.1c-1.5-0.9-2.8-2.1-3.9-3.4
			c-1.1-1.3-1.9-2.6-2.4-3.9c-0.5-1.3-0.8-2.7-0.8-4.2c0-3.6,1.4-6.6,4.3-9.1s6.3-3.8,10.4-3.8c2.7,0,5.5,0.6,8.2,1.8
			C306.6,113.8,308.9,115.6,310.7,118z"/>
		<path class="st2" d="M348.5,112.4h30.4v6.8H367v42.9h-6.7v-42.9h-11.8V112.4z"/>
		<path class="st2" d="M417.1,112.4h27.6v6.8h-20.8v12.4h20.8v6.7h-20.8v17.1h20.8v6.7h-27.6V112.4z"/>
		<path class="st2" d="M514.2,118l-5.5,4.4c-1.5-1.5-2.8-2.6-4-3.4c-1.2-0.7-2.9-1.1-5.1-1.1c-2.4,0-4.4,0.6-5.9,1.7
			c-1.5,1.1-2.3,2.5-2.3,4.3c0,1.5,0.7,2.8,2,4c1.3,1.2,3.6,2.4,6.8,3.8s5.7,2.6,7.5,3.8c1.8,1.2,3.2,2.5,4.4,3.9
			c1.1,1.4,2,2.9,2.6,4.5c0.6,1.6,0.8,3.3,0.8,5c0,4.1-1.5,7.7-4.5,10.6c-3,2.9-6.6,4.4-10.9,4.4c-4.2,0-7.8-1.1-11-3.4
			s-5.6-5.7-7.4-10.2l6.8-1.9c2.5,5.6,6.3,8.4,11.4,8.4c2.5,0,4.5-0.7,6.2-2.2c1.6-1.5,2.5-3.3,2.5-5.6c0-1.3-0.4-2.7-1.3-4.1
			c-0.9-1.4-1.9-2.5-3.2-3.4c-1.3-0.9-3.3-1.9-6.1-3c-2.8-1.1-4.9-2.2-6.4-3.1c-1.5-0.9-2.8-2.1-3.9-3.4c-1.1-1.3-1.9-2.6-2.4-3.9
			c-0.5-1.3-0.8-2.7-0.8-4.2c0-3.6,1.4-6.6,4.3-9.1c2.9-2.5,6.3-3.8,10.4-3.8c2.7,0,5.5,0.6,8.2,1.8
			C510.1,113.8,512.4,115.6,514.2,118z"/>
	</g>
</g>
<g id="Twin_Suns">
	<g>
		<ellipse class="st3" cx="318.6" cy="20.5" rx="10.6" ry="10.3"/>
		<ellipse class="st4" cx="288.9" cy="10.3" rx="10.6" ry="10.3"/>
	</g>
</g>
<g id="Border_1_">
	<g>
		<path class="st5" d="M271.3,28.1H10.1c-4.1,0-7.4,3.3-7.4,7.4v137.5c0,4.1,3.3,7.4,7.4,7.4h74.8"/>
	</g>
	<g>
		<path class="st5" d="M522.6,180.5h74.8c4.1,0,7.4-3.3,7.4-7.4V35.6c0-4.1-3.3-7.4-7.4-7.4H336.2"/>
	</g>
	<g>
		<path class="st2" d="M33.2,46.9H40V83c0,9.8-4.1,14.7-12.3,14.7c-2.8,0-5.6-0.7-8.4-2.2l3.3-5.5c2.2,0.7,3.9,1.1,5.3,1.1
			c3.5,0,5.3-2.4,5.3-7.1V46.9z"/>
		<path class="st2" d="M82.9,46.9h6.7v30.3c0,4.5,1.1,8,3.2,10.4C95,90,98,91.2,102,91.2c3.9,0,7-1.1,9.1-3.4
			c2.2-2.3,3.3-5.4,3.3-9.5V46.9h6.7v31c0,6-1.7,10.9-5.2,14.5s-8,5.4-13.7,5.4c-5.9,0-10.5-1.8-14.1-5.5c-3.5-3.7-5.3-9.1-5.3-16.2
			V46.9z"/>
		<path class="st2" d="M161.5,44.8l36.4,37.4V46.8h6.7v51.5l-36.4-37.3v35h-6.7V44.8z"/>
		<path class="st2" d="M245.6,46.8h11.9c9.5,0,16.5,2.5,21.1,7.5c4.6,5,6.9,10.7,6.9,17.1c0,6.5-2.4,12.2-7.2,17.2
			c-4.8,5-11.7,7.5-20.8,7.5h-12V46.8z M252.4,53.4v36h0.4c5,0,8.8-0.2,11.3-0.7c2.5-0.5,4.9-1.4,7.2-3c2.3-1.5,4.1-3.5,5.4-6.1
			s2-5.3,2-8.3c0-3.8-1.1-7.2-3.2-10.3c-2.1-3.1-4.7-5.1-7.7-6.2c-3-1.1-7-1.6-12-1.6H252.4z"/>
		<path class="st2" d="M325.3,46.8h6.7v42.6h16v6.7h-22.7V46.8z"/>
		<path class="st2" d="M404,44.9l23.3,51.2h-7.1l-5.7-12.6h-20.9L388,96.1h-7L404,44.9z M404,60.3l-7.9,17.6H412L404,60.3z"/>
		<path class="st2" d="M464,44.8l36.4,37.4V46.8h6.7v51.5l-36.4-37.3v35H464V44.8z"/>
		<path class="st2" d="M548.2,46.8h11.9c9.5,0,16.5,2.5,21.1,7.5c4.6,5,6.9,10.7,6.9,17.1c0,6.5-2.4,12.2-7.2,17.2
			c-4.8,5-11.7,7.5-20.8,7.5h-12V46.8z M554.9,53.4v36h0.4c5,0,8.8-0.2,11.3-0.7c2.5-0.5,4.9-1.4,7.2-3c2.3-1.5,4.1-3.5,5.4-6.1
			s2-5.3,2-8.3c0-3.8-1.1-7.2-3.2-10.3c-2.1-3.1-4.7-5.1-7.7-6.2c-3-1.1-7-1.6-12-1.6H554.9z"/>
	</g>
</g>
</svg>
