<?xml version="1.0" encoding="utf-8"?>
<!-- Generator: Adobe Illustrator 22.1.0, SVG Export Plug-In . SVG Version: 6.00 Build 0)  -->
<svg version="1.1" xmlns="http://www.w3.org/2000/svg" xmlns:xlink="http://www.w3.org/1999/xlink" x="0px" y="0px"
	 viewBox="0 0 556.6 134" style="enable-background:new 0 0 556.6 134;" xml:space="preserve">
<style type="text/css">
	.st0{fill:#FFFFFF;}
	.st1{fill:#F77529;}
	.st2{fill:#EDCCCA;}
	.st3{fill:none;stroke:#FFFFFF;stroke-width:5.3242;stroke-miterlimit:10;}
</style>
<g id="Background">
</g>
<g id="Text">
	<path class="st0" d="M19.3,29.8h30v6.7H37.6v42.4H31V36.5H19.3V29.8z"/>
	<path class="st0" d="M105.2,27.9l23.2,51h-7l-5.7-12.6H94.8l-5.6,12.6h-7L105.2,27.9z M105.2,43.2l-7.9,17.5h15.8L105.2,43.2z"/>
	<path class="st0" d="M159.2,29.8h30v6.7h-11.7v42.4h-6.6V36.5h-11.7V29.8z"/>
	<path class="st0" d="M377.4,28.7h6.6v49.1h-6.6V28.7z"/>
	<path class="st0" d="M426,26.7L462.3,64V28.7h6.7v51.4l-36.3-37.1v34.9H426V26.7z"/>
	<path class="st0" d="M510,28.7h27.2v6.7h-20.6v12.3h20.6v6.6h-20.6v16.9h20.6v6.6H510V28.7z"/>
	<g>
		<path class="st0" d="M162.3,95.6h22.6v5.1h-8.8v32h-5v-32h-8.8V95.6z"/>
		<path class="st0" d="M214.3,95.6h5v37h-5V95.6z"/>
		<path class="st0" d="M281.8,94.1l10.1,38.5h-5l-6.1-23.6l-10.5,25l-10.6-25.2l-6.2,23.8h-4.9l10.1-38.5l11.6,27.6L281.8,94.1z"/>
		<path class="st0" d="M320.5,95.6H341v5.1h-15.5v9.2H341v5h-15.5v12.7H341v5h-20.5V95.6z"/>
		<path class="st0" d="M393.4,99.7l-4.1,3.3c-1.1-1.1-2.1-2-2.9-2.5c-0.9-0.6-2.1-0.8-3.8-0.8c-1.8,0-3.3,0.4-4.4,1.2
			c-1.1,0.8-1.7,1.9-1.7,3.2c0,1.1,0.5,2.1,1.5,3c1,0.9,2.7,1.8,5,2.8s4.2,2,5.6,2.9c1.3,0.9,2.4,1.9,3.3,2.9
			c0.9,1.1,1.5,2.2,1.9,3.4c0.4,1.2,0.6,2.4,0.6,3.7c0,3.1-1.1,5.7-3.4,7.9c-2.2,2.2-4.9,3.3-8.1,3.3c-3.1,0-5.8-0.8-8.2-2.5
			c-2.4-1.7-4.2-4.2-5.5-7.6l5.1-1.4c1.8,4.2,4.7,6.2,8.5,6.2c1.8,0,3.4-0.6,4.6-1.7c1.2-1.1,1.8-2.5,1.8-4.2c0-1-0.3-2-1-3
			c-0.6-1-1.4-1.8-2.4-2.5c-1-0.7-2.5-1.4-4.5-2.3c-2.1-0.9-3.7-1.6-4.8-2.3c-1.1-0.7-2.1-1.5-2.9-2.5c-0.8-1-1.4-1.9-1.8-2.9
			c-0.4-1-0.6-2-0.6-3.1c0-2.7,1.1-4.9,3.2-6.8c2.1-1.9,4.7-2.8,7.8-2.8c2,0,4.1,0.4,6.1,1.3C390.3,96.6,392,97.9,393.4,99.7z"/>
	</g>
</g>
<g id="Twin_Suns">
	<g>
		<ellipse class="st1" cx="321.8" cy="53.3" rx="27.5" ry="26.7"/>
		<ellipse class="st2" cx="244.7" cy="26.7" rx="27.5" ry="26.7"/>
	</g>
</g>
<g id="Border_1_">
	<g>
		<path class="st3" d="M210.2,10.1H10.1c-4.1,0-7.4,3.3-7.4,7.4v71.8c0,4.1,3.3,7.4,7.4,7.4h145.2"/>
	</g>
	<g>
		<path class="st3" d="M279.3,10.1h267.2c4.1,0,7.4,3.3,7.4,7.4v71.8c0,4.1-3.3,7.4-7.4,7.4H401.3"/>
	</g>
</g>
</svg>
