<?xml version="1.0" encoding="utf-8"?>
<!-- Generator: Adobe Illustrator 22.1.0, SVG Export Plug-In . SVG Version: 6.00 Build 0)  -->
<svg version="1.1" xmlns="http://www.w3.org/2000/svg" xmlns:xlink="http://www.w3.org/1999/xlink" x="0px" y="0px"
	 viewBox="0 0 841.3 151.9" style="enable-background:new 0 0 841.3 151.9;" xml:space="preserve">
<style type="text/css">
	.st0{fill:#F77529;}
	.st1{fill:#EDCCCA;}
	.st2{fill:none;stroke:#FFFFFF;stroke-width:5.3242;stroke-miterlimit:10;}
	.st3{fill:#FFFFFF;}
</style>
<g id="Background">
</g>
<g id="Text">
</g>
<g id="Twin_Suns">
	<g>
		<ellipse class="st0" cx="435.5" cy="20.5" rx="10.6" ry="10.3"/>
		<ellipse class="st1" cx="405.8" cy="10.3" rx="10.6" ry="10.3"/>
	</g>
</g>
<g id="Border_1_">
	<g>
		<path class="st2" d="M388.2,28.1H10.1c-4.1,0-7.4,3.3-7.4,7.4v71.8c0,4.1,3.3,7.4,7.4,7.4h106.5"/>
	</g>
	<g>
		<path class="st2" d="M724.8,114.8h106.5c4.1,0,7.4-3.3,7.4-7.4V35.6c0-4.1-3.3-7.4-7.4-7.4H453.1"/>
	</g>
	<g>
		<path class="st3" d="M155.5,114.6v5.8c-4-2-7.7-3-11.1-3c-4.3,0-8,1.4-11,4.2c-3,2.8-4.5,6.2-4.5,10.3c0,4.2,1.5,7.6,4.6,10.4
			c3,2.8,6.8,4.2,11.4,4.2c3.3,0,6.8-1,10.5-3.1v5.8c-3.4,1.8-7,2.7-11,2.7c-5.8,0-10.7-2-14.8-5.9s-6.2-8.6-6.2-14.2
			c0-5.4,2-10.1,6-13.9c4-3.9,8.9-5.8,14.6-5.8C147.8,112.1,151.6,112.9,155.5,114.6z"/>
		<path class="st3" d="M183.6,131.7c0-5.4,2-10,6.1-13.8c4.1-3.8,8.9-5.8,14.6-5.8c5.6,0,10.4,1.9,14.4,5.8c4,3.9,6,8.5,6,13.8
			c0,5.6-2,10.4-6,14.3c-4,3.9-8.9,5.8-14.6,5.8c-5.7,0-10.6-2-14.6-5.9C185.6,142.1,183.6,137.3,183.6,131.7z M219.3,132
			c0-4.1-1.5-7.6-4.5-10.4c-3-2.8-6.6-4.2-11-4.2c-4.1,0-7.7,1.4-10.6,4.3c-2.9,2.9-4.4,6.3-4.4,10.3c0,4.1,1.5,7.5,4.5,10.3
			s6.7,4.2,11.1,4.2c4,0,7.5-1.4,10.4-4.3C217.8,139.4,219.3,135.9,219.3,132z"/>
		<path class="st3" d="M255.6,113.3h5v32.3h12.2v5h-17.2V113.3z"/>
		<path class="st3" d="M302.2,113.3h5v32.3h12.2v5h-17.2V113.3z"/>
		<path class="st3" d="M347.7,113.3h20.7v5.1h-15.6v9.3h15.6v5h-15.6v12.8h15.6v5h-20.7V113.3z"/>
		<path class="st3" d="M428.1,114.6v5.8c-4-2-7.7-3-11.1-3c-4.3,0-8,1.4-11,4.2c-3,2.8-4.5,6.2-4.5,10.3c0,4.2,1.5,7.6,4.6,10.4
			c3,2.8,6.8,4.2,11.4,4.2c3.3,0,6.8-1,10.5-3.1v5.8c-3.4,1.8-7,2.7-11,2.7c-5.8,0-10.7-2-14.8-5.9s-6.2-8.6-6.2-14.2
			c0-5.4,2-10.1,6-13.9c4-3.9,8.9-5.8,14.6-5.8C420.4,112.1,424.2,112.9,428.1,114.6z"/>
		<path class="st3" d="M455.4,113.3h22.8v5.1h-8.9v32.2h-5v-32.2h-8.9V113.3z"/>
		<path class="st3" d="M507.4,113.3h5v37.3h-5V113.3z"/>
		<path class="st3" d="M544.9,113.3h5.9c3.9,0,7.1,0.8,9.5,2.5c2.5,1.7,3.7,3.8,3.7,6.4c0,3.1-1.8,5.8-5.4,7.9
			c5.6,1.9,8.4,5.1,8.4,9.8c0,3.2-1.5,5.8-4.4,7.8c-2.9,2-6.8,3-11.6,3h-6.1V113.3z M549.9,117.8v11c2.8,0,5-0.6,6.5-1.6
			c1.5-1,2.2-2.5,2.2-4.3c0-1.6-0.7-2.8-2-3.8c-1.3-0.9-3.2-1.4-5.4-1.4C550.7,117.7,550.3,117.8,549.9,117.8z M549.9,133.3V146h0.4
			c4.4,0,7.4-0.7,9-2.1s2.4-2.8,2.4-4.3c0-1.9-0.9-3.5-2.7-4.6c-1.8-1.2-4.3-1.7-7.4-1.7H549.9z"/>
		<path class="st3" d="M598.4,113.3h5v32.3h12.2v5h-17.2V113.3z"/>
		<path class="st3" d="M643.9,113.3h20.7v5.1h-15.6v9.3h15.6v5h-15.6v12.8h15.6v5h-20.7V113.3z"/>
		<path class="st3" d="M716.9,117.5l-4.1,3.3c-1.1-1.1-2.1-2-3-2.5s-2.2-0.8-3.8-0.8c-1.8,0-3.3,0.4-4.5,1.2
			c-1.1,0.8-1.7,1.9-1.7,3.2c0,1.1,0.5,2.1,1.5,3c1,0.9,2.7,1.8,5.1,2.8s4.3,2,5.6,2.9c1.3,0.9,2.4,1.9,3.3,2.9
			c0.9,1.1,1.5,2.2,1.9,3.4s0.6,2.4,0.6,3.8c0,3.1-1.1,5.7-3.4,7.9s-5,3.3-8.2,3.3c-3.1,0-5.9-0.9-8.3-2.6s-4.2-4.3-5.5-7.7l5.1-1.4
			c1.9,4.2,4.7,6.3,8.5,6.3c1.9,0,3.4-0.6,4.6-1.7c1.2-1.1,1.8-2.5,1.8-4.2c0-1-0.3-2-1-3.1s-1.4-1.9-2.4-2.5
			c-1-0.7-2.5-1.4-4.6-2.3c-2.1-0.9-3.7-1.6-4.8-2.4c-1.1-0.7-2.1-1.6-2.9-2.5c-0.8-1-1.4-2-1.8-2.9c-0.4-1-0.6-2-0.6-3.1
			c0-2.7,1.1-5,3.2-6.8c2.1-1.9,4.8-2.8,7.8-2.8c2,0,4.1,0.4,6.2,1.3S715.5,115.7,716.9,117.5z"/>
	</g>
	<g>
		<path class="st3" d="M51.5,52.2l-5.4,4.4c-1.4-1.5-2.7-2.6-3.9-3.3c-1.2-0.7-2.9-1.1-5.1-1.1c-2.4,0-4.4,0.5-5.9,1.6
			C29.8,54.8,29,56.2,29,58c0,1.5,0.7,2.8,2,3.9c1.3,1.1,3.5,2.4,6.7,3.7c3.2,1.4,5.6,2.6,7.4,3.8c1.8,1.2,3.2,2.5,4.3,3.9
			c1.1,1.4,2,2.9,2.5,4.5s0.8,3.2,0.8,5c0,4.1-1.5,7.6-4.5,10.4c-3,2.9-6.6,4.3-10.8,4.3c-4.1,0-7.7-1.1-10.9-3.4
			c-3.2-2.2-5.6-5.6-7.3-10.1l6.7-1.9c2.4,5.5,6.2,8.3,11.2,8.3c2.4,0,4.5-0.7,6.1-2.2c1.6-1.5,2.4-3.3,2.4-5.5c0-1.3-0.4-2.7-1.3-4
			c-0.9-1.3-1.9-2.5-3.2-3.3c-1.3-0.9-3.3-1.9-6-3c-2.8-1.1-4.9-2.2-6.4-3.1s-2.8-2.1-3.9-3.4c-1.1-1.3-1.9-2.6-2.4-3.9
			c-0.5-1.3-0.8-2.7-0.8-4.1c0-3.5,1.4-6.5,4.2-9c2.8-2.5,6.3-3.7,10.3-3.7c2.7,0,5.4,0.6,8.1,1.7C47.4,48.1,49.7,49.8,51.5,52.2z"
			/>
		<path class="st3" d="M110.3,44.8l23.2,51h-7l-5.7-12.6H99.9l-5.6,12.6h-7L110.3,44.8z M110.3,60.2l-7.9,17.5h15.8L110.3,60.2z"/>
		<path class="st3" d="M170.3,44.7l36.3,37.3V46.7h6.7v51.4L177,60.9v34.9h-6.7V44.7z"/>
		<path class="st3" d="M254.4,46.7h11.9c9.4,0,16.5,2.5,21.1,7.5c4.6,5,6.9,10.7,6.9,17.1c0,6.5-2.4,12.2-7.1,17.1
			c-4.8,5-11.7,7.4-20.8,7.4h-12V46.7z M261.1,53.3v36h0.4c5,0,8.7-0.2,11.3-0.7c2.5-0.4,4.9-1.4,7.2-3c2.3-1.5,4.1-3.5,5.4-6
			c1.3-2.5,2-5.3,2-8.3c0-3.8-1.1-7.2-3.2-10.3c-2.1-3.1-4.7-5.1-7.7-6.2c-3-1.1-7-1.6-12-1.6H261.1z"/>
		<path class="st3" d="M372.7,48.4V56c-5.3-2.6-10.2-3.9-14.6-3.9c-5.7,0-10.5,1.8-14.4,5.5c-3.9,3.7-5.9,8.2-5.9,13.6
			c0,5.5,2,10,6,13.7c4,3.7,9,5.5,15,5.5c4.4,0,9-1.4,13.9-4.1V94c-4.4,2.4-9.3,3.5-14.5,3.5c-7.6,0-14.1-2.6-19.5-7.7
			s-8.1-11.4-8.1-18.6c0-7.1,2.7-13.3,8-18.3c5.3-5.1,11.7-7.6,19.2-7.6C362.6,45.2,367.6,46.2,372.7,48.4z"/>
		<path class="st3" d="M412.7,46.7h10.6c5.3,0,9.6,1.3,12.9,4c3.3,2.6,5,6,5,10.1c0,3.3-1.1,6.2-3.2,8.7c-2.2,2.5-5.5,4.3-10.1,5.3
			l14.3,21h-7.7L421,75.6h-1.5v20.2h-6.7V46.7z M419.5,52.6v17.1c9.9,0.2,14.9-2.7,14.9-8.6c0-2.1-0.6-3.8-1.7-5.1
			c-1.2-1.3-2.7-2.2-4.6-2.7C426,52.9,423.2,52.6,419.5,52.6z"/>
		<path class="st3" d="M500.5,44.8l23.2,51h-7L511,83.3h-20.9l-5.6,12.6h-7L500.5,44.8z M500.5,60.2l-7.9,17.5h15.8L500.5,60.2z"/>
		<path class="st3" d="M588.8,44.8l15.8,36.3l14.8-34.3h6.9l-21.8,50.6L588.8,61L573,97.4l-21.8-50.6h6.9l15,34.7L588.8,44.8z"/>
		<path class="st3" d="M665.5,46.7h6.6v42.5h16v6.6h-22.6V46.7z"/>
		<path class="st3" d="M725.3,46.7h27.2v6.7H732v12.3h20.6v6.6H732v16.9h20.6v6.6h-27.2V46.7z"/>
		<path class="st3" d="M792.5,46.7h10.6c5.3,0,9.6,1.3,12.9,4s5,6,5,10.1c0,3.3-1.1,6.2-3.2,8.7c-2.2,2.5-5.5,4.3-10.1,5.3l14.3,21
			h-7.7l-13.6-20.2h-1.5v20.2h-6.7V46.7z M799.2,52.6v17.1c9.9,0.2,14.9-2.7,14.9-8.6c0-2.1-0.6-3.8-1.7-5.1
			c-1.2-1.3-2.7-2.2-4.6-2.7C805.7,52.9,802.9,52.6,799.2,52.6z"/>
	</g>
</g>
</svg>
