<?xml version="1.0" encoding="utf-8"?>
<!-- Generator: Adobe Illustrator 22.1.0, SVG Export Plug-In . SVG Version: 6.00 Build 0)  -->
<svg version="1.1" xmlns="http://www.w3.org/2000/svg" xmlns:xlink="http://www.w3.org/1999/xlink" x="0px" y="0px"
	 viewBox="0 0 702.2 224.5" style="enable-background:new 0 0 702.2 224.5;" xml:space="preserve">
<style type="text/css">
	.st0{fill:#FFFFFF;}
	.st1{fill:#F77529;}
	.st2{fill:#EDCCCA;}
	.st3{fill:none;stroke:#FFFFFF;stroke-width:6.1536;stroke-miterlimit:10;}
	.st4{fill:none;stroke:#FFFFFF;stroke-width:6.3009;stroke-miterlimit:10;}
</style>
<g id="Background">
</g>
<g id="Text">
	<g>
		<path class="st0" d="M240.8,183.9l27.6,28.4v-26.9h5.1v39.1l-27.6-28.2v26.5h-5.1V183.9z"/>
		<path class="st0" d="M304.2,185.4h20.7v5.1h-15.6v9.3h15.6v5h-15.6v12.8h15.6v5h-20.7V185.4z"/>
		<path class="st0" d="M380.5,184l12,27.6l11.3-26.1h5.3l-16.5,38.4l-12-27.6l-12,27.6l-16.6-38.4h5.3l11.4,26.4L380.5,184z"/>
		<path class="st0" d="M460.7,189.6l-4.1,3.3c-1.1-1.1-2.1-2-3-2.5s-2.2-0.8-3.8-0.8c-1.8,0-3.3,0.4-4.5,1.2
			c-1.1,0.8-1.7,1.9-1.7,3.2c0,1.1,0.5,2.1,1.5,3c1,0.9,2.7,1.8,5.1,2.8c2.4,1,4.3,2,5.6,2.9c1.3,0.9,2.4,1.9,3.3,2.9
			s1.5,2.2,1.9,3.4s0.6,2.4,0.6,3.8c0,3.1-1.1,5.7-3.4,7.9s-5,3.3-8.2,3.3c-3.1,0-5.9-0.9-8.3-2.6c-2.4-1.7-4.2-4.3-5.5-7.7l5.1-1.4
			c1.9,4.2,4.7,6.3,8.5,6.3c1.9,0,3.4-0.6,4.6-1.7c1.2-1.1,1.8-2.5,1.8-4.2c0-1-0.3-2-1-3.1c-0.6-1-1.4-1.9-2.4-2.5
			s-2.5-1.4-4.6-2.3c-2.1-0.9-3.7-1.6-4.8-2.4c-1.1-0.7-2.1-1.6-2.9-2.5c-0.8-1-1.4-2-1.8-2.9c-0.4-1-0.6-2-0.6-3.1
			c0-2.7,1.1-5,3.2-6.8c2.1-1.9,4.8-2.8,7.8-2.8c2,0,4.1,0.4,6.2,1.3C457.6,186.4,459.3,187.8,460.7,189.6z"/>
	</g>
	<path class="st0" d="M152,122.1v7.6c-5.3-2.6-10.2-3.9-14.6-3.9c-5.7,0-10.5,1.8-14.4,5.5c-3.9,3.7-5.9,8.2-5.9,13.6
		c0,5.5,2,10,6,13.7c4,3.7,9,5.5,15,5.5c4.4,0,9-1.4,13.9-4.1v7.7c-4.4,2.4-9.3,3.5-14.5,3.5c-7.6,0-14.1-2.6-19.5-7.7
		s-8.1-11.4-8.1-18.6c0-7.1,2.7-13.3,8-18.3c5.3-5.1,11.7-7.6,19.2-7.6C141.9,118.8,146.9,119.9,152,122.1z"/>
	<path class="st0" d="M209.3,118.5l23.2,51h-7l-5.7-12.6H199l-5.6,12.6h-7L209.3,118.5z M209.3,133.8l-7.9,17.5h15.8L209.3,133.8z"
		/>
	<path class="st0" d="M269.3,118.4l36.3,37.3v-35.4h6.7v51.4L276,134.6v34.9h-6.7V118.4z"/>
	<path class="st0" d="M350.3,120.4h30v6.7h-11.7v42.4H362v-42.4h-11.7V120.4z"/>
	<path class="st0" d="M418.8,120.4h6.6v49.1h-6.6V120.4z"/>
	<path class="st0" d="M466.8,118.4l36.3,37.3v-35.4h6.7v51.4l-36.3-37.2v34.9h-6.7V118.4z"/>
	<path class="st0" d="M569.2,118.5l23.2,51h-7l-5.7-12.6h-20.9l-5.6,12.6h-7L569.2,118.5z M569.2,133.8l-7.9,17.5h15.8L569.2,133.8z
		"/>
	<g>
		<path class="st0" d="M76.5,56.5v7.6c-5.3-2.6-10.2-3.9-14.6-3.9c-5.7,0-10.5,1.8-14.4,5.5c-3.9,3.7-5.9,8.2-5.9,13.6
			c0,5.5,2,10,6,13.7c4,3.7,9,5.5,15,5.5c4.4,0,9-1.4,13.9-4.1v7.7c-4.4,2.4-9.3,3.5-14.5,3.5c-7.6,0-14.1-2.6-19.5-7.7
			s-8.1-11.4-8.1-18.6c0-7.1,2.7-13.3,8-18.3c5.3-5.1,11.7-7.6,19.2-7.6C66.4,53.3,71.4,54.4,76.5,56.5z"/>
		<path class="st0" d="M115.7,54.8h6.7v18.9h23.5V54.8h6.6V104h-6.6V80.4h-23.5V104h-6.7V54.8z"/>
		<path class="st0" d="M212.5,52.9l23.2,51h-7L223,91.4h-20.9l-5.6,12.6h-7L212.5,52.9z M212.5,68.3l-7.9,17.5h15.8L212.5,68.3z"/>
		<path class="st0" d="M273.8,54.8h6.6v42.5h16v6.6h-22.6V54.8z"/>
		<path class="st0" d="M374.8,52.8l13.4,51.2h-6.6l-8.1-31.3l-14,33.2l-14-33.4l-8.2,31.5h-6.5l13.4-51.2l15.4,36.6L374.8,52.8z"/>
		<path class="st0" d="M425.9,54.9h6.7v30.2c0,4.5,1.1,7.9,3.2,10.4c2.1,2.4,5.2,3.7,9.1,3.7c3.9,0,6.9-1.1,9.1-3.4
			c2.2-2.2,3.3-5.4,3.3-9.5V54.9h6.7v30.9c0,6-1.7,10.8-5.1,14.4c-3.4,3.6-8,5.4-13.7,5.4c-5.8,0-10.5-1.8-14-5.5
			c-3.5-3.7-5.3-9-5.3-16.2V54.9z"/>
		<path class="st0" d="M504.4,52.9l36.3,37.3V54.8h6.7v51.4l-36.3-37.2V104h-6.7V52.9z"/>
		<path class="st0" d="M587.4,53.9h8.7v8.9c0,1.8-0.5,3.6-1.4,5.5s-2.2,3.6-3.7,5.1l-3.1-2.9c2.5-2.5,3.8-5.2,3.9-7.9h-4.4V53.9z"/>
		<path class="st0" d="M666.7,60.3l-5.4,4.4c-1.4-1.5-2.7-2.6-3.9-3.3c-1.2-0.7-2.9-1.1-5.1-1.1c-2.4,0-4.4,0.5-5.9,1.6
			c-1.5,1.1-2.3,2.5-2.3,4.2c0,1.5,0.7,2.8,2,3.9c1.3,1.1,3.5,2.4,6.7,3.7s5.6,2.6,7.4,3.8c1.8,1.2,3.2,2.5,4.3,3.9
			c1.1,1.4,2,2.9,2.5,4.5s0.8,3.2,0.8,5c0,4.1-1.5,7.6-4.5,10.4c-3,2.9-6.6,4.3-10.8,4.3c-4.1,0-7.7-1.1-10.9-3.4
			c-3.2-2.2-5.6-5.6-7.3-10.1l6.7-1.9c2.4,5.5,6.2,8.3,11.2,8.3c2.4,0,4.5-0.7,6.1-2.2c1.6-1.5,2.4-3.3,2.4-5.5c0-1.3-0.4-2.7-1.3-4
			c-0.8-1.3-1.9-2.5-3.2-3.3c-1.3-0.9-3.3-1.9-6-3s-4.9-2.2-6.4-3.1c-1.5-0.9-2.8-2.1-3.9-3.4c-1.1-1.3-1.9-2.6-2.4-3.9
			c-0.5-1.3-0.8-2.7-0.8-4.1c0-3.5,1.4-6.5,4.2-9c2.8-2.5,6.3-3.7,10.3-3.7c2.7,0,5.4,0.6,8.1,1.7C662.6,56.2,664.9,57.9,666.7,60.3
			z"/>
	</g>
</g>
<g id="Twin_Suns">
	<g>
		<ellipse class="st1" cx="373.3" cy="30.6" rx="15.8" ry="15.3"/>
		<ellipse class="st2" cx="329.1" cy="15.3" rx="15.8" ry="15.3"/>
	</g>
</g>
<g id="Border_1_">
	<g>
		<path class="st3" d="M402.6,37.3h288c4.7,0,8.6,3.9,8.6,8.6v132.5c0,4.7-3.9,8.6-8.6,8.6H475.1"/>
	</g>
	<g>
		<path class="st4" d="M299.8,37.3H11.9c-4.8,0-8.8,4-8.8,8.8v132.2c0,4.8,4,8.8,8.8,8.8h215.4"/>
	</g>
</g>
</svg>
