<?xml version="1.0" encoding="utf-8"?>
<!-- Generator: Adobe Illustrator 21.0.2, SVG Export Plug-In . SVG Version: 6.00 Build 0)  -->
<svg version="1.1" xmlns="http://www.w3.org/2000/svg" xmlns:xlink="http://www.w3.org/1999/xlink" x="0px" y="0px"
	 viewBox="0 0 544.4 163" style="enable-background:new 0 0 544.4 163;" xml:space="preserve">
<style type="text/css">
	.st0{fill:#FFFFFF;}
	.st1{fill:#F77529;}
	.st2{fill:#EDCCCA;}
	.st3{fill:none;stroke:#FFFFFF;stroke-width:3.9285;stroke-miterlimit:10;}
	.st4{fill:none;stroke:#FFFFFF;stroke-width:4.0214;stroke-miterlimit:10;}
</style>
<g id="Background">
</g>
<g id="Text">
	<g>
		<path class="st0" d="M65.8,62.5l-5.4,4.4c-1.4-1.5-2.7-2.6-3.9-3.3c-1.2-0.7-2.9-1.1-5.1-1.1c-2.4,0-4.4,0.5-5.9,1.6
			c-1.5,1.1-2.3,2.5-2.3,4.2c0,1.5,0.7,2.8,2,3.9c1.3,1.1,3.5,2.4,6.7,3.7c3.2,1.4,5.6,2.6,7.4,3.8c1.8,1.2,3.2,2.5,4.3,3.9
			c1.1,1.4,2,2.9,2.5,4.5s0.8,3.2,0.8,5c0,4.1-1.5,7.6-4.5,10.4c-3,2.9-6.6,4.3-10.8,4.3c-4.1,0-7.7-1.1-10.9-3.4
			c-3.2-2.2-5.6-5.6-7.3-10.1l6.7-1.9c2.4,5.5,6.2,8.3,11.2,8.3c2.4,0,4.5-0.7,6.1-2.2c1.6-1.5,2.4-3.3,2.4-5.5c0-1.3-0.4-2.7-1.3-4
			c-0.9-1.3-1.9-2.5-3.2-3.3c-1.3-0.9-3.3-1.9-6-3c-2.8-1.1-4.9-2.2-6.4-3.1s-2.8-2.1-3.9-3.4c-1.1-1.3-1.9-2.6-2.4-3.9
			c-0.5-1.3-0.8-2.7-0.8-4.1c0-3.5,1.4-6.5,4.2-9c2.8-2.5,6.3-3.7,10.3-3.7c2.7,0,5.4,0.6,8.1,1.7C61.7,58.4,64,60.1,65.8,62.5z"/>
		<path class="st0" d="M124.6,55.1l23.2,51h-7l-5.7-12.6h-20.9l-5.6,12.6h-7L124.6,55.1z M124.6,70.5L116.8,88h15.8L124.6,70.5z"/>
		<path class="st0" d="M186,57h10.6c5.3,0,9.6,1.3,12.9,4c3.3,2.6,5,6,5,10.1c0,3.3-1.1,6.2-3.2,8.7c-2.2,2.5-5.5,4.3-10.1,5.3
			l14.3,21h-7.7L194.2,86h-1.5v20.2H186V57z M192.7,63v17.1c9.9,0.2,14.9-2.7,14.9-8.6c0-2.1-0.6-3.8-1.7-5.1
			c-1.2-1.3-2.7-2.2-4.6-2.7C199.3,63.2,196.5,63,192.7,63z"/>
		<path class="st0" d="M256.4,57h6.6v42.5h16v6.6h-22.6V57z"/>
		<path class="st0" d="M335.2,55.1l23.2,51h-7l-5.7-12.6h-20.9l-5.6,12.6h-7L335.2,55.1z M335.1,70.5L327.3,88h15.8L335.1,70.5z"/>
		<path class="st0" d="M432.1,58.7v7.6c-5.3-2.6-10.2-3.9-14.6-3.9c-5.7,0-10.5,1.8-14.4,5.5c-3.9,3.7-5.9,8.2-5.9,13.6
			c0,5.5,2,10,6,13.7c4,3.7,9,5.5,15,5.5c4.4,0,9-1.4,13.9-4.1v7.7c-4.4,2.4-9.3,3.5-14.5,3.5c-7.6,0-14.1-2.6-19.5-7.7
			S390,88.7,390,81.5c0-7.1,2.7-13.3,8-18.3c5.3-5.1,11.7-7.6,19.2-7.6C421.9,55.5,426.9,56.6,432.1,58.7z"/>
		<path class="st0" d="M510.8,58.7v7.6c-5.3-2.6-10.2-3.9-14.6-3.9c-5.7,0-10.5,1.8-14.4,5.5c-3.9,3.7-5.9,8.2-5.9,13.6
			c0,5.5,2,10,6,13.7c4,3.7,9,5.5,15,5.5c4.4,0,9-1.4,13.9-4.1v7.7c-4.4,2.4-9.3,3.5-14.5,3.5c-7.6,0-14.1-2.6-19.5-7.7
			s-8.1-11.4-8.1-18.6c0-7.1,2.7-13.3,8-18.3c5.3-5.1,11.7-7.6,19.2-7.6C500.6,55.5,505.6,56.6,510.8,58.7z"/>
	</g>
	<g>
		<path class="st0" d="M94.2,122.6h8.1c4,0,7.3,1,9.8,3c2.5,2,3.8,4.6,3.8,7.7c0,2.5-0.8,4.7-2.5,6.6s-4.2,3.3-7.7,4l10.8,16h-5.8
			l-10.4-15.4h-1.1v15.4h-5.1V122.6z M99.3,127.1v13c7.5,0.2,11.3-2,11.3-6.5c0-1.6-0.4-2.9-1.3-3.9s-2.1-1.7-3.5-2.1
			S102.1,127.1,99.3,127.1z"/>
		<path class="st0" d="M146.5,122.6h20.7v5.1h-15.6v9.3h15.6v5h-15.6v12.8h15.6v5h-20.7V122.6z"/>
		<path class="st0" d="M193.6,122.6h5.4l11.7,26.4l11.8-26.4h5.4l-17.3,38.5L193.6,122.6z"/>
		<path class="st0" d="M256.4,122.6h5v37.3h-5V122.6z"/>
		<path class="st0" d="M292.8,122.6h20.7v5.1h-15.6v9.3h15.6v5h-15.6v12.8h15.6v5h-20.7V122.6z"/>
		<path class="st0" d="M369,121.1l12,27.6l11.3-26.1h5.3L381,161.1l-12-27.6l-12,27.6l-16.6-38.4h5.3l11.4,26.4L369,121.1z"/>
		<path class="st0" d="M449.3,126.7l-4.1,3.3c-1.1-1.1-2.1-2-3-2.5s-2.2-0.8-3.8-0.8c-1.8,0-3.3,0.4-4.5,1.2
			c-1.1,0.8-1.7,1.9-1.7,3.2c0,1.1,0.5,2.1,1.5,3c1,0.9,2.7,1.8,5.1,2.8c2.4,1,4.3,2,5.6,2.9c1.3,0.9,2.4,1.9,3.3,2.9
			c0.9,1.1,1.5,2.2,1.9,3.4c0.4,1.2,0.6,2.5,0.6,3.8c0,3.1-1.1,5.7-3.4,7.9c-2.3,2.2-5,3.3-8.2,3.3c-3.1,0-5.9-0.9-8.3-2.6
			c-2.4-1.7-4.2-4.3-5.5-7.7l5.1-1.4c1.9,4.2,4.7,6.3,8.5,6.3c1.9,0,3.4-0.6,4.6-1.7c1.2-1.1,1.8-2.5,1.8-4.2c0-1-0.3-2-1-3.1
			c-0.6-1-1.4-1.9-2.4-2.5c-1-0.7-2.5-1.4-4.6-2.3c-2.1-0.9-3.7-1.6-4.8-2.4c-1.1-0.7-2.1-1.6-2.9-2.5s-1.4-2-1.8-2.9
			c-0.4-1-0.6-2-0.6-3.1c0-2.7,1.1-5,3.2-6.8c2.1-1.9,4.8-2.8,7.8-2.8c2,0,4.1,0.4,6.2,1.3C446.2,123.6,447.9,124.9,449.3,126.7z"/>
	</g>
</g>
<g id="Twin_Suns">
	<g>
		<ellipse class="st1" cx="294.4" cy="33.1" rx="15.8" ry="15.3"/>
		<ellipse class="st2" cx="250.1" cy="17.8" rx="15.8" ry="15.3"/>
	</g>
</g>
<g id="Border_1_">
	<g>
		<path class="st3" d="M323.6,39.8h211.6c3,0,5.5,2.5,5.5,5.5v72.4c0,3-2.5,5.5-5.5,5.5h-71.5"/>
	</g>
	<g>
		<path class="st4" d="M220.8,39.8H9.3c-3.1,0-5.6,2.5-5.6,5.6v72.1c0,3.1,2.5,5.6,5.6,5.6h71.4"/>
	</g>
</g>
</svg>
