<?xml version="1.0" encoding="utf-8"?>
<!-- Generator: Adobe Illustrator 22.1.0, SVG Export Plug-In . SVG Version: 6.00 Build 0)  -->
<svg version="1.1" xmlns="http://www.w3.org/2000/svg" xmlns:xlink="http://www.w3.org/1999/xlink" x="0px" y="0px"
	 viewBox="0 0 515.8 151.5" style="enable-background:new 0 0 515.8 151.5;" xml:space="preserve">
<style type="text/css">
	.st0{fill:#F77529;}
	.st1{fill:#EDCCCA;}
	.st2{fill:none;stroke:#FFFFFF;stroke-width:5.3242;stroke-miterlimit:10;}
	.st3{fill:#FFFFFF;}
</style>
<g id="Background">
</g>
<g id="Text">
</g>
<g id="Twin_Suns">
	<g>
		<ellipse class="st0" cx="272.7" cy="20.5" rx="10.6" ry="10.3"/>
		<ellipse class="st1" cx="243" cy="10.3" rx="10.6" ry="10.3"/>
	</g>
</g>
<g id="Border_1_">
	<g>
		<path class="st2" d="M225.4,28.1H10.1c-4.1,0-7.4,3.3-7.4,7.4v71.2c0,4.1,3.3,7.4,7.4,7.4h62.8"/>
	</g>
	<g>
		<path class="st2" d="M442.9,114.2h62.8c4.1,0,7.4-3.3,7.4-7.4V35.6c0-4.1-3.3-7.4-7.4-7.4H290.3"/>
	</g>
	<g>
		<path class="st3" d="M51.5,52.2l-5.4,4.4c-1.4-1.5-2.7-2.6-3.9-3.3c-1.2-0.7-2.9-1.1-5.1-1.1c-2.4,0-4.4,0.5-5.9,1.6
			C29.8,54.8,29,56.2,29,58c0,1.5,0.7,2.8,2,3.9c1.3,1.1,3.5,2.4,6.7,3.7c3.2,1.4,5.6,2.6,7.4,3.8c1.8,1.2,3.2,2.5,4.3,3.9
			c1.1,1.4,2,2.9,2.5,4.5s0.8,3.2,0.8,5c0,4.1-1.5,7.6-4.5,10.4c-3,2.9-6.6,4.3-10.8,4.3c-4.1,0-7.7-1.1-10.9-3.4
			c-3.2-2.2-5.6-5.6-7.3-10.1l6.7-1.9c2.4,5.5,6.2,8.3,11.2,8.3c2.4,0,4.5-0.7,6.1-2.2c1.6-1.5,2.4-3.3,2.4-5.5c0-1.3-0.4-2.7-1.3-4
			c-0.9-1.3-1.9-2.5-3.2-3.3c-1.3-0.9-3.3-1.9-6-3c-2.8-1.1-4.9-2.2-6.4-3.1s-2.8-2.1-3.9-3.4c-1.1-1.3-1.9-2.6-2.4-3.9
			c-0.5-1.3-0.8-2.7-0.8-4.1c0-3.5,1.4-6.5,4.2-9c2.8-2.5,6.3-3.7,10.3-3.7c2.7,0,5.4,0.6,8.1,1.7C47.4,48.1,49.7,49.8,51.5,52.2z"
			/>
		<path class="st3" d="M110.3,44.8l23.2,51h-7l-5.7-12.6H99.9l-5.6,12.6h-7L110.3,44.8z M110.3,60.2l-7.9,17.5h15.8L110.3,60.2z"/>
		<path class="st3" d="M171.7,46.7h10.6c5.3,0,9.6,1.3,12.9,4c3.3,2.6,5,6,5,10.1c0,3.3-1.1,6.2-3.2,8.7c-2.2,2.5-5.5,4.3-10.1,5.3
			l14.3,21h-7.7l-13.6-20.2h-1.5v20.2h-6.7V46.7z M178.4,52.6v17.1c9.9,0.2,14.9-2.7,14.9-8.6c0-2.1-0.6-3.8-1.7-5.1
			c-1.2-1.3-2.7-2.2-4.6-2.7C185,52.9,182.2,52.6,178.4,52.6z"/>
		<path class="st3" d="M242.1,46.7h6.6v42.5h16v6.6h-22.6V46.7z"/>
		<path class="st3" d="M320.8,44.8l23.2,51h-7l-5.7-12.6h-20.9l-5.6,12.6h-7L320.8,44.8z M320.8,60.2L313,77.7h15.8L320.8,60.2z"/>
		<path class="st3" d="M417.8,48.4V56c-5.3-2.6-10.2-3.9-14.6-3.9c-5.7,0-10.5,1.8-14.4,5.5c-3.9,3.7-5.9,8.2-5.9,13.6
			c0,5.5,2,10,6,13.7c4,3.7,9,5.5,15,5.5c4.4,0,9-1.4,13.9-4.1V94c-4.4,2.4-9.3,3.5-14.5,3.5c-7.6,0-14.1-2.6-19.5-7.7
			s-8.1-11.4-8.1-18.6c0-7.1,2.7-13.3,8-18.3c5.3-5.1,11.7-7.6,19.2-7.6C407.6,45.2,412.6,46.2,417.8,48.4z"/>
		<path class="st3" d="M496.4,48.4V56c-5.3-2.6-10.2-3.9-14.6-3.9c-5.7,0-10.5,1.8-14.4,5.5c-3.9,3.7-5.9,8.2-5.9,13.6
			c0,5.5,2,10,6,13.7c4,3.7,9,5.5,15,5.5c4.4,0,9-1.4,13.9-4.1V94c-4.4,2.4-9.3,3.5-14.5,3.5c-7.6,0-14.1-2.6-19.5-7.7
			s-8.1-11.4-8.1-18.6c0-7.1,2.7-13.3,8-18.3c5.3-5.1,11.7-7.6,19.2-7.6C486.3,45.2,491.3,46.2,496.4,48.4z"/>
	</g>
	<g>
		<path class="st3" d="M79.9,112.9H88c4,0,7.3,1,9.8,3c2.5,2,3.8,4.6,3.8,7.7c0,2.5-0.8,4.7-2.5,6.6s-4.2,3.3-7.7,4l10.8,16h-5.8
			l-10.4-15.4H85v15.4h-5.1V112.9z M85,117.5v13c7.5,0.2,11.3-2,11.3-6.5c0-1.6-0.4-2.9-1.3-3.9s-2.1-1.7-3.5-2.1
			S87.8,117.5,85,117.5z"/>
		<path class="st3" d="M132.2,112.9h20.7v5.1h-15.6v9.3h15.6v5h-15.6v12.8h15.6v5h-20.7V112.9z"/>
		<path class="st3" d="M179.3,113h5.4l11.7,26.4l11.8-26.4h5.4l-17.3,38.5L179.3,113z"/>
		<path class="st3" d="M242.1,112.9h5v37.3h-5V112.9z"/>
		<path class="st3" d="M278.4,112.9h20.7v5.1h-15.6v9.3h15.6v5h-15.6v12.8h15.6v5h-20.7V112.9z"/>
		<path class="st3" d="M354.7,111.5l12,27.6L378,113h5.3l-16.5,38.4l-12-27.6l-12,27.6L326.1,113h5.3l11.4,26.4L354.7,111.5z"/>
		<path class="st3" d="M435,117.1l-4.1,3.3c-1.1-1.1-2.1-2-3-2.5s-2.2-0.8-3.8-0.8c-1.8,0-3.3,0.4-4.5,1.2c-1.1,0.8-1.7,1.9-1.7,3.2
			c0,1.1,0.5,2.1,1.5,3c1,0.9,2.7,1.8,5.1,2.8c2.4,1,4.3,2,5.6,2.9c1.3,0.9,2.4,1.9,3.3,2.9c0.9,1.1,1.5,2.2,1.9,3.4
			c0.4,1.2,0.6,2.5,0.6,3.8c0,3.1-1.1,5.7-3.4,7.9c-2.3,2.2-5,3.3-8.2,3.3c-3.1,0-5.9-0.9-8.3-2.6c-2.4-1.7-4.2-4.3-5.5-7.7l5.1-1.4
			c1.9,4.2,4.7,6.3,8.5,6.3c1.9,0,3.4-0.6,4.6-1.7c1.2-1.1,1.8-2.5,1.8-4.2c0-1-0.3-2-1-3.1c-0.6-1-1.4-1.9-2.4-2.5
			c-1-0.7-2.5-1.4-4.6-2.3c-2.1-0.9-3.7-1.6-4.8-2.4c-1.1-0.7-2.1-1.6-2.9-2.5c-0.8-1-1.4-2-1.8-2.9c-0.4-1-0.6-2-0.6-3.1
			c0-2.7,1.1-5,3.2-6.8c2.1-1.9,4.8-2.8,7.8-2.8c2,0,4.1,0.4,6.2,1.3C431.8,114,433.6,115.3,435,117.1z"/>
	</g>
</g>
</svg>
