<?xml version="1.0" encoding="utf-8"?>
<!-- Generator: Adobe Illustrator 22.1.0, SVG Export Plug-In . SVG Version: 6.00 Build 0)  -->
<svg version="1.1" xmlns="http://www.w3.org/2000/svg" xmlns:xlink="http://www.w3.org/1999/xlink" x="0px" y="0px"
	 viewBox="0 0 672.1 218.4" style="enable-background:new 0 0 672.1 218.4;" xml:space="preserve">
<style type="text/css">
	.st0{fill:#FFFFFF;}
	.st1{fill:#F77529;}
	.st2{fill:#EDCCCA;}
	.st3{fill:none;stroke:#FFFFFF;stroke-width:5.3242;stroke-miterlimit:10;}
</style>
<g id="Background">
</g>
<g id="Text">
	<g>
		<path class="st0" d="M225.6,177.8l27.6,28.4v-26.9h5.1v39.1l-27.6-28.2v26.5h-5.1V177.8z"/>
		<path class="st0" d="M289.1,179.3h20.7v5.1h-15.6v9.3h15.6v5h-15.6v12.8h15.6v5h-20.7V179.3z"/>
		<path class="st0" d="M365.3,177.9l12,27.6l11.3-26.1h5.3l-16.5,38.4l-12-27.6l-12,27.6l-16.6-38.4h5.3l11.4,26.4L365.3,177.9z"/>
		<path class="st0" d="M445.6,183.5l-4.1,3.3c-1.1-1.1-2.1-2-3-2.5s-2.2-0.8-3.8-0.8c-1.8,0-3.3,0.4-4.5,1.2
			c-1.1,0.8-1.7,1.9-1.7,3.2c0,1.1,0.5,2.1,1.5,3c1,0.9,2.7,1.8,5.1,2.8c2.4,1,4.3,2,5.6,2.9c1.3,0.9,2.4,1.9,3.3,2.9
			s1.5,2.2,1.9,3.4s0.6,2.4,0.6,3.8c0,3.1-1.1,5.7-3.4,7.9s-5,3.3-8.2,3.3c-3.1,0-5.9-0.9-8.3-2.6c-2.4-1.7-4.2-4.3-5.5-7.7l5.1-1.4
			c1.9,4.2,4.7,6.3,8.5,6.3c1.9,0,3.4-0.6,4.6-1.7c1.2-1.1,1.8-2.5,1.8-4.2c0-1-0.3-2-1-3.1c-0.6-1-1.4-1.9-2.4-2.5
			s-2.5-1.4-4.6-2.3c-2.1-0.9-3.7-1.6-4.8-2.4c-1.1-0.7-2.1-1.6-2.9-2.5c-0.8-1-1.4-2-1.8-2.9c-0.4-1-0.6-2-0.6-3.1
			c0-2.7,1.1-5,3.2-6.8c2.1-1.9,4.8-2.8,7.8-2.8c2,0,4.1,0.4,6.2,1.3C442.5,180.3,444.2,181.7,445.6,183.5z"/>
	</g>
</g>
<g id="Twin_Suns">
	<g>
		<ellipse class="st1" cx="350.9" cy="20.5" rx="10.6" ry="10.3"/>
		<ellipse class="st2" cx="321.2" cy="10.3" rx="10.6" ry="10.3"/>
	</g>
</g>
<g id="Border_1_">
	<g>
		<path class="st3" d="M303.6,28.1H10.1c-4.1,0-7.4,3.3-7.4,7.4v137.5c0,4.1,3.3,7.4,7.4,7.4h208.6"/>
	</g>
	<g>
		<path class="st0" d="M136.9,114.1v7.6c-5.3-2.6-10.2-3.9-14.6-3.9c-5.7,0-10.5,1.8-14.4,5.5c-3.9,3.7-5.9,8.2-5.9,13.6
			c0,5.5,2,10,6,13.7c4,3.7,9,5.5,15,5.5c4.4,0,9-1.4,13.9-4.1v7.7c-4.4,2.4-9.3,3.5-14.5,3.5c-7.6,0-14.1-2.6-19.5-7.7
			s-8.1-11.4-8.1-18.6c0-7.1,2.7-13.3,8-18.3c5.3-5.1,11.7-7.6,19.2-7.6C126.8,110.8,131.8,111.9,136.9,114.1z"/>
		<path class="st0" d="M194.2,110.5l23.2,51h-7l-5.7-12.6h-20.9l-5.6,12.6h-7L194.2,110.5z M194.2,125.8l-7.9,17.5h15.8L194.2,125.8
			z"/>
		<path class="st0" d="M254.2,110.4l36.3,37.3v-35.4h6.7v51.4l-36.3-37.2v34.9h-6.7V110.4z"/>
		<path class="st0" d="M335.2,112.4h30v6.7h-11.7v42.4h-6.6v-42.4h-11.7V112.4z"/>
		<path class="st0" d="M403.7,112.4h6.6v49.1h-6.6V112.4z"/>
		<path class="st0" d="M451.7,110.4l36.3,37.3v-35.4h6.7v51.4l-36.3-37.2v34.9h-6.7V110.4z"/>
		<path class="st0" d="M554.1,110.5l23.2,51h-7l-5.7-12.6h-20.9l-5.6,12.6h-7L554.1,110.5z M554.1,125.8l-7.9,17.5H562L554.1,125.8z
			"/>
		<g>
			<path class="st0" d="M61.4,48.6v7.6c-5.3-2.6-10.2-3.9-14.6-3.9c-5.7,0-10.5,1.8-14.4,5.5c-3.9,3.7-5.9,8.2-5.9,13.6
				c0,5.5,2,10,6,13.7c4,3.7,9,5.5,15,5.5c4.4,0,9-1.4,13.9-4.1v7.7c-4.4,2.4-9.3,3.5-14.5,3.5c-7.6,0-14.1-2.6-19.5-7.7
				s-8.1-11.4-8.1-18.6c0-7.1,2.7-13.3,8-18.3c5.3-5.1,11.7-7.6,19.2-7.6C51.3,45.3,56.3,46.4,61.4,48.6z"/>
			<path class="st0" d="M100.6,46.9h6.7v18.9h23.5V46.9h6.6V96h-6.6V72.4h-23.5V96h-6.7V46.9z"/>
			<path class="st0" d="M197.4,45l23.2,51h-7l-5.7-12.6H187L181.4,96h-7L197.4,45z M197.4,60.3l-7.9,17.5h15.8L197.4,60.3z"/>
			<path class="st0" d="M258.7,46.9h6.6v42.5h16V96h-22.6V46.9z"/>
			<path class="st0" d="M359.6,44.8L373.1,96h-6.6l-8.1-31.3l-14,33.2l-14-33.4L322.1,96h-6.5L329,44.8l15.4,36.6L359.6,44.8z"/>
			<path class="st0" d="M410.7,46.9h6.7v30.2c0,4.5,1.1,7.9,3.2,10.4c2.1,2.4,5.2,3.7,9.1,3.7c3.9,0,6.9-1.1,9.1-3.4
				c2.2-2.2,3.3-5.4,3.3-9.5V46.9h6.7v30.9c0,6-1.7,10.8-5.1,14.4c-3.4,3.6-8,5.4-13.7,5.4c-5.8,0-10.5-1.8-14-5.5
				c-3.5-3.7-5.3-9-5.3-16.2V46.9z"/>
			<path class="st0" d="M489.3,44.9l36.3,37.3V46.9h6.7v51.4L496,61.1V96h-6.7V44.9z"/>
			<path class="st0" d="M572.3,45.9h8.7v8.9c0,1.8-0.5,3.6-1.4,5.5s-2.2,3.6-3.7,5.1l-3.1-2.9c2.5-2.5,3.8-5.2,3.9-7.9h-4.4V45.9z"
				/>
			<path class="st0" d="M651.6,52.3l-5.4,4.4c-1.4-1.5-2.7-2.6-3.9-3.3c-1.2-0.7-2.9-1.1-5.1-1.1c-2.4,0-4.4,0.5-5.9,1.6
				c-1.5,1.1-2.3,2.5-2.3,4.2c0,1.5,0.7,2.8,2,3.9c1.3,1.1,3.5,2.4,6.7,3.7s5.6,2.6,7.4,3.8c1.8,1.2,3.2,2.5,4.3,3.9
				c1.1,1.4,2,2.9,2.5,4.5s0.8,3.2,0.8,5c0,4.1-1.5,7.6-4.5,10.4c-3,2.9-6.6,4.3-10.8,4.3c-4.1,0-7.7-1.1-10.9-3.4
				c-3.2-2.2-5.6-5.6-7.3-10.1l6.7-1.9c2.4,5.5,6.2,8.3,11.2,8.3c2.4,0,4.5-0.7,6.1-2.2c1.6-1.5,2.4-3.3,2.4-5.5
				c0-1.3-0.4-2.7-1.3-4c-0.8-1.3-1.9-2.5-3.2-3.3c-1.3-0.9-3.3-1.9-6-3s-4.9-2.2-6.4-3.1c-1.5-0.9-2.8-2.1-3.9-3.4
				c-1.1-1.3-1.9-2.6-2.4-3.9c-0.5-1.3-0.8-2.7-0.8-4.1c0-3.5,1.4-6.5,4.2-9c2.8-2.5,6.3-3.7,10.3-3.7c2.7,0,5.4,0.6,8.1,1.7
				C647.5,48.2,649.8,50,651.6,52.3z"/>
		</g>
	</g>
	<g>
		<path class="st3" d="M453.5,180.5H662c4.1,0,7.4-3.3,7.4-7.4V35.6c0-4.1-3.3-7.4-7.4-7.4H368.5"/>
	</g>
</g>
</svg>
