<?xml version="1.0" encoding="utf-8"?>
<!-- Generator: Adobe Illustrator 24.2.3, SVG Export Plug-In . SVG Version: 6.00 Build 0)  -->
<svg version="1.1" id="Logo" xmlns="http://www.w3.org/2000/svg" xmlns:xlink="http://www.w3.org/1999/xlink" x="0px" y="0px"
	 viewBox="0 0 327.2 94.8" style="enable-background:new 0 0 327.2 94.8;" xml:space="preserve">
<style type="text/css">
	.st0{fill:#FFFFFF;}
	.st1{fill:#EDCCCA;}
	.st2{fill:#F37257;}
	.st3{fill:#D2B597;}
</style>
<g>
	<g>
		<path class="st0" d="M10.9,20.5H1V16h24.8v4.5h-10v26.9h-4.9V20.5z"/>
		<path class="st0" d="M42.9,28.9c0-8.3,4.8-13.5,13.6-13.5c8.9,0,13.7,5.2,13.7,13.5v18.5h-4.9v-9.9H47.7v9.9h-4.8V28.9z
			 M65.4,32.9v-4c0-5.7-3-9-8.8-9s-8.8,3.4-8.8,9v4H65.4z"/>
		<path class="st0" d="M97.4,20.5h-9.9V16h24.8v4.5h-10v26.9h-4.9V20.5z"/>
		<path class="st0" d="M231.3,16h4.9v31.4h-4.9V16z"/>
		<path class="st0" d="M256.4,28.4c0-8,4.8-13,13.2-13c8.5,0,13.3,5,13.3,13v19h-4.9v-19c0-5.3-2.9-8.5-8.4-8.5
			c-5.5,0-8.4,3.2-8.4,8.5v19h-4.9V28.4z"/>
		<path class="st0" d="M303.1,16h23.1v4.5H308v8.6h15.4v4.5H308v9.2h18.2v4.5h-23.1V16z"/>
	</g>
	<g>
		<path class="st0" d="M108.1,74.9h-6.9v-2.1h16.2v2.1h-6.9v18.4h-2.3V74.9z"/>
		<path class="st0" d="M129.8,72.8h2.3v20.5h-2.3V72.8z"/>
		<path class="st0" d="M145.2,79.7c0-4.9,3-7.3,6.9-7.3c2.8,0,5,1.3,6,3.8c1-2.5,3.2-3.8,6-3.8c3.9,0,6.9,2.4,6.9,7.3v13.6h-2.3
			V79.7c0-3.5-2-5.2-4.8-5.2c-2.8,0-4.8,1.8-4.8,5.2v13.6H157V79.7c0-3.4-2-5.2-4.8-5.2c-2.7,0-4.8,1.8-4.8,5.2v13.6h-2.3V79.7z"/>
		<path class="st0" d="M184.1,72.8h15v2.1h-12.8v7h11V84h-11v7.3h12.8v2.1h-15V72.8z"/>
		<path class="st0" d="M211,87.6h2.2c0.1,2.6,2,4.1,5.3,4.1c3.3,0,5.3-1.6,5.3-4.1c0-2.7-2.6-3.2-5.4-3.6c-3.3-0.5-6.9-1.1-6.9-5.4
			c0-3.6,2.8-6.1,7-6.1c4.1,0,6.9,2.3,7,5.9h-2.2c-0.1-2.3-1.9-3.9-4.9-3.9c-3,0-4.9,1.6-4.9,4c0,2.6,2.6,3.1,5.4,3.5
			c3.3,0.5,6.9,1.1,6.9,5.5c0,3.8-2.9,6.2-7.5,6.2C214.1,93.7,211.1,91.4,211,87.6z"/>
	</g>
	<g>
		<ellipse class="st1" cx="141.7" cy="14.6" rx="14.1" ry="13.5"/>
		<g>
			<path class="st2" d="M175.5,48.8c2,0.1,4,0.2,6,0.4c2,0.2,4,0.3,5.9,0.6l5.9,0.8c2,0.3,3.9,0.7,5.9,1c2.5,0.4,5,0.9,7.4,1.5
				c3.4-4.1,5.4-9.2,5.4-14.7c0-13.2-11.2-23.9-25.1-23.9c-13.8,0-25.1,10.7-25.1,23.9c0,3.6,0.8,7,2.3,10l5.4,0.1L175.5,48.8z"/>
		</g>
		<path class="st3" d="M72.9,71.9c6.5-4.2,13.7-7.4,21-10.4c1.8-0.7,3.7-1.4,5.5-2c1.9-0.6,3.7-1.3,5.6-1.9
			c3.7-1.2,7.6-2.2,11.4-3.2c1.9-0.5,3.8-1,5.8-1.4c1.9-0.4,3.9-0.8,5.8-1.1l5.9-1l5.9-0.9c7.9-0.9,15.9-1.4,23.8-1.5l6,0.1l6,0.3
			c2,0.1,4,0.2,6,0.4c2,0.2,4,0.3,5.9,0.6l5.9,0.8c2,0.3,3.9,0.7,5.9,1c3.9,0.6,7.8,1.6,11.6,2.5c15.3,3.9,30.1,9.7,43.4,17.7
			l-0.3,0.5c-14.2-6-29-10.6-44.2-13.6c-3.8-0.7-7.6-1.5-11.4-1.9c-1.9-0.3-3.8-0.6-5.8-0.8l-5.8-0.6c-7.7-0.7-15.5-1.1-23.2-1
			c-7.7,0-15.5,0.4-23.2,1.1c-7.7,0.8-15.4,1.9-23,3.4c-7.6,1.5-15.1,3.3-22.5,5.5c-7.4,2.2-14.7,4.7-21.7,7.9L72.9,71.9z"/>
	</g>
</g>
</svg>
