<?xml version="1.0" encoding="utf-8"?>
<!-- Generator: Adobe Illustrator 21.1.0, SVG Export Plug-In . SVG Version: 6.00 Build 0)  -->
<svg version="1.1" id="Layer_1" xmlns="http://www.w3.org/2000/svg" xmlns:xlink="http://www.w3.org/1999/xlink" x="0px" y="0px"
	 viewBox="0 0 1194 554" style="enable-background:new 0 0 1194 554;" xml:space="preserve">
<style type="text/css">
	.st0{fill:#000500;}
	.st1{fill:#BD1021;}
	.st2{fill:none;stroke:#159B29;stroke-width:6;stroke-linecap:round;stroke-miterlimit:10;}
	.st3{fill:#159B29;}
	.st4{fill:none;}
</style>
<path class="st0" d="M0,0v554h1194V0H0z M1121,236l-108,14c0,0-5,1-5,6h-0.1c0,0,0.1,0,0.1,0.1c0,6,5,7.3,5,7.3l108,17.1v138
	c0,65.9-57,69.6-57,69.6H833.7c-0.7,0-0.7,0-0.7,0c-1.7-0.1-8-0.7-32-23c-11.4-10.6-21-20-26-20H597H419c-5,0-14.6,9.4-26,20
	c-24,22.3-30.3,22.9-32,23c0,0,0,0-0.7,0H130c0,0-57-3.7-57-69.6v-138l108-17.1c0,0,5-1.2,5-7.3c0,0,0-0.1,0.1-0.1H186c0-5-5-6-5-6
	L73,236c0,0,0-59,0-113s57-57,57-57h467h467c0,0,57,3,57,57S1121,236,1121,236z"/>
<polygon class="st1" points="583,21 583,53 611,53 "/>
<g>
	<line class="st2" x1="44" y1="152" x2="57" y2="152"/>
	<line class="st2" x1="44" y1="177" x2="57" y2="177"/>
	<line class="st2" x1="44" y1="202" x2="57" y2="202"/>
	<line class="st2" x1="44" y1="227" x2="57" y2="227"/>
	<line class="st2" x1="44" y1="252" x2="57" y2="252"/>
	<line class="st2" x1="44" y1="277" x2="57" y2="277"/>
	<line class="st2" x1="44" y1="302" x2="57" y2="302"/>
	<line class="st2" x1="44" y1="327" x2="57" y2="327"/>
	<line class="st2" x1="44" y1="352" x2="57" y2="352"/>
	<line class="st2" x1="44" y1="377" x2="57" y2="377"/>
	<line class="st2" x1="44" y1="402" x2="57" y2="402"/>
	<circle class="st3" cx="37" cy="152" r="3"/>
	<circle class="st3" cx="37" cy="277" r="3"/>
	<circle class="st3" cx="37" cy="402" r="3"/>
	<polygon class="st3" points="12,265 12,290 33,277 	"/>
</g>
<g>
	<rect x="434.5" y="468" class="st4" width="325" height="47"/>
</g>
<rect x="690" y="13" class="st4" width="431" height="40"/>
</svg>
